HIERARCHY
ROOT Hips
{
	OFFSET 1.908470 -0.042395 0.993439
	CHANNELS 6 Xposition Yposition Zposition Zrotation Yrotation Xrotation 
	JOINT Spine
	{
		OFFSET -0.000033 8.340414 -2.713969
		CHANNELS 3 Zrotation Yrotation Xrotation
		JOINT Spine1
		{
			OFFSET 0.000010 11.910001 -2.100062
			CHANNELS 3 Zrotation Yrotation Xrotation
			JOINT Spine2
			{
				OFFSET 0.000008 12.047684 -1.054064
				CHANNELS 3 Zrotation Yrotation Xrotation
				JOINT Spine3
				{
					OFFSET 0.000034 12.093698 0.000019
					CHANNELS 3 Zrotation Yrotation Xrotation
					JOINT Neck
					{
						OFFSET -0.000030 15.549049 1.554890
						CHANNELS 3 Zrotation Yrotation Xrotation
						JOINT Neck1
						{
							OFFSET 0.000026 4.687321 0.410073
							CHANNELS 3 Zrotation Yrotation Xrotation
							JOINT Head
							{
								OFFSET 0.000048 4.633810 0.817085
								CHANNELS 3 Zrotation Yrotation Xrotation
								JOINT HeadEnd
								{
									OFFSET -0.000004 9.727756 -0.000004
									CHANNELS 3 Zrotation Yrotation Xrotation
									End Site
									{
										OFFSET 0.000000 0.000000 0.000000
									}
								}
							}
						}
					}
					JOINT RightShoulder
					{
						OFFSET 0.000027 11.106509 6.072620
						CHANNELS 3 Zrotation Yrotation Xrotation
						JOINT RightArm
						{
							OFFSET -19.427916 0.000068 0.000011
							CHANNELS 3 Zrotation Yrotation Xrotation
							JOINT RightForeArm
							{
								OFFSET -29.350728 0.000009 0.000017
								CHANNELS 3 Zrotation Yrotation Xrotation
								JOINT RightHand
								{
									OFFSET -27.018058 -0.000000 0.000069
									CHANNELS 3 Zrotation Yrotation Xrotation
									JOINT RightHandMiddle1
									{
										OFFSET -9.244018 -0.000005 -0.000011
										CHANNELS 3 Zrotation Yrotation Xrotation
										JOINT RightHandMiddle2
										{
											OFFSET -4.870073 -0.000013 -0.000005
											CHANNELS 3 Zrotation Yrotation Xrotation
											JOINT RightHandMiddle3
											{
												OFFSET -3.169079 0.000016 -0.000008
												CHANNELS 3 Zrotation Yrotation Xrotation
												JOINT RightHandMiddle4
												{
													OFFSET -1.888357 -0.000012 -0.000006
													CHANNELS 3 Zrotation Yrotation Xrotation
													End Site
													{
														OFFSET 0.000000 0.000000 0.000000
													}
												}
											}
										}
									}
									JOINT RightHandRing
									{
										OFFSET -0.249989 -0.250014 -0.956469
										CHANNELS 3 Zrotation Yrotation Xrotation
										JOINT RightHandRing1
										{
											OFFSET -8.140222 0.000033 -0.734579
											CHANNELS 3 Zrotation Yrotation Xrotation
											JOINT RightHandRing2
											{
												OFFSET -4.501569 -0.000029 -0.406258
												CHANNELS 3 Zrotation Yrotation Xrotation
												JOINT RightHandRing3
												{
													OFFSET -3.068842 0.000004 -0.276952
													CHANNELS 3 Zrotation Yrotation Xrotation
													JOINT RightHandRing4
													{
														OFFSET -1.869939 0.000006 -0.168764
														CHANNELS 3 Zrotation Yrotation Xrotation
														End Site
														{
															OFFSET 0.000000 0.000000 0.000000
														}
													}
												}
											}
										}
										JOINT RightHandPinky
										{
											OFFSET -0.163071 -0.249976 -0.975114
											CHANNELS 3 Zrotation Yrotation Xrotation
											JOINT RightHandPinky1
											{
												OFFSET -6.681455 -0.000027 -1.494098
												CHANNELS 3 Zrotation Yrotation Xrotation
												JOINT RightHandPinky2
												{
													OFFSET -3.580973 -0.000003 -0.800781
													CHANNELS 3 Zrotation Yrotation Xrotation
													JOINT RightHandPinky3
													{
														OFFSET -2.276525 -0.000021 -0.509053
														CHANNELS 3 Zrotation Yrotation Xrotation
														JOINT RightHandPinky4
														{
															OFFSET -1.690357 -0.000016 -0.377984
															CHANNELS 3 Zrotation Yrotation Xrotation
															End Site
															{
																OFFSET 0.000000 0.000000 0.000000
															}
														}
													}
												}
											}
										}
									}
									JOINT RightHandIndex
									{
										OFFSET -0.249990 -0.249994 0.956494
										CHANNELS 3 Zrotation Yrotation Xrotation
										JOINT RightHandIndex1
										{
											OFFSET -8.934081 0.000033 0.806259
											CHANNELS 3 Zrotation Yrotation Xrotation
											JOINT RightHandIndex2
											{
												OFFSET -4.694678 -0.000008 0.423665
												CHANNELS 3 Zrotation Yrotation Xrotation
												JOINT RightHandIndex3
												{
													OFFSET -2.811730 0.000011 0.253715
													CHANNELS 3 Zrotation Yrotation Xrotation
													JOINT RightHandIndex4
													{
														OFFSET -1.709901 -0.000028 0.154270
														CHANNELS 3 Zrotation Yrotation Xrotation
														End Site
														{
															OFFSET 0.000000 0.000000 0.000000
														}
													}
												}
											}
										}
										JOINT RightHandThumb1
										{
											OFFSET -0.163004 -0.749989 0.975096
											CHANNELS 3 Zrotation Yrotation Xrotation
											JOINT RightHandThumb2
											{
												OFFSET -5.411693 0.835523 2.244705
												CHANNELS 3 Zrotation Yrotation Xrotation
												JOINT RightHandThumb3
												{
													OFFSET -3.567162 0.550727 1.479618
													CHANNELS 3 Zrotation Yrotation Xrotation
													JOINT RightHandThumb4
													{
														OFFSET -2.150553 0.332032 0.892035
														CHANNELS 3 Zrotation Yrotation Xrotation
														End Site
														{
															OFFSET 0.000000 0.000000 0.000000
														}
													}
												}
											}
										}
									}
								}
							}
						}
					}
					JOINT LeftShoulder
					{
						OFFSET 0.000043 11.106479 6.072652
						CHANNELS 3 Zrotation Yrotation Xrotation
						JOINT LeftArm
						{
							OFFSET 19.427877 -0.000003 -0.000007
							CHANNELS 3 Zrotation Yrotation Xrotation
							JOINT LeftForeArm
							{
								OFFSET 29.350742 0.000028 0.000034
								CHANNELS 3 Zrotation Yrotation Xrotation
								JOINT LeftHand
								{
									OFFSET 27.018049 -0.000044 -0.000029
									CHANNELS 3 Zrotation Yrotation Xrotation
									JOINT LeftHandMiddle1
									{
										OFFSET 9.402661 0.000028 0.000000
										CHANNELS 3 Zrotation Yrotation Xrotation
										JOINT LeftHandMiddle2
										{
											OFFSET 4.950125 -0.000002 -0.000008
											CHANNELS 3 Zrotation Yrotation Xrotation
											JOINT LeftHandMiddle3
											{
												OFFSET 3.211945 0.000003 -0.000013
												CHANNELS 3 Zrotation Yrotation Xrotation
												JOINT LeftHandMiddle4
												{
													OFFSET 1.927630 0.000006 0.000018
													CHANNELS 3 Zrotation Yrotation Xrotation
													End Site
													{
														OFFSET 0.000000 0.000000 0.000000
													}
												}
											}
										}
									}
									JOINT LeftHandRing
									{
										OFFSET 0.249966 -0.250016 -0.906125
										CHANNELS 3 Zrotation Yrotation Xrotation
										JOINT LeftHandRing1
										{
											OFFSET 8.286080 -0.000015 -0.747790
											CHANNELS 3 Zrotation Yrotation Xrotation
											JOINT LeftHandRing2
											{
												OFFSET 4.585526 0.000013 -0.413806
												CHANNELS 3 Zrotation Yrotation Xrotation
												JOINT LeftHandRing3
												{
													OFFSET 3.124447 0.000003 -0.281973
													CHANNELS 3 Zrotation Yrotation Xrotation
													JOINT LeftHandRing4
													{
														OFFSET 1.908781 -0.000011 -0.172256
														CHANNELS 3 Zrotation Yrotation Xrotation
														End Site
														{
															OFFSET 0.000000 0.000000 0.000000
														}
													}
												}
											}
										}
										JOINT LeftHandPinky
										{
											OFFSET 0.167548 -0.249998 -0.924968
											CHANNELS 3 Zrotation Yrotation Xrotation
											JOINT LeftHandPinky1
											{
												OFFSET 6.823476 0.000011 -1.525920
												CHANNELS 3 Zrotation Yrotation Xrotation
												JOINT LeftHandPinky2
												{
													OFFSET 3.642807 -0.000003 -0.814578
													CHANNELS 3 Zrotation Yrotation Xrotation
													JOINT LeftHandPinky3
													{
														OFFSET 2.333123 0.000006 -0.521710
														CHANNELS 3 Zrotation Yrotation Xrotation
														JOINT LeftHandPinky4
														{
															OFFSET 1.725457 0.000007 -0.385880
															CHANNELS 3 Zrotation Yrotation Xrotation
															End Site
															{
																OFFSET 0.000000 0.000000 0.000000
															}
														}
													}
												}
											}
										}
									}
									JOINT LeftHandIndex
									{
										OFFSET 0.250024 -0.249991 0.906143
										CHANNELS 3 Zrotation Yrotation Xrotation
										JOINT LeftHandIndex1
										{
											OFFSET 9.087969 -0.000020 0.820136
											CHANNELS 3 Zrotation Yrotation Xrotation
											JOINT LeftHandIndex2
											{
												OFFSET 4.776559 -0.000018 0.431065
												CHANNELS 3 Zrotation Yrotation Xrotation
												JOINT LeftHandIndex3
												{
													OFFSET 2.865140 0.000021 0.258586
													CHANNELS 3 Zrotation Yrotation Xrotation
													JOINT LeftHandIndex4
													{
														OFFSET 1.745445 0.000003 0.157490
														CHANNELS 3 Zrotation Yrotation Xrotation
														End Site
														{
															OFFSET 0.000000 0.000000 0.000000
														}
													}
												}
											}
										}
										JOINT LeftHandThumb1
										{
											OFFSET 0.167564 -0.749995 0.924960
											CHANNELS 3 Zrotation Yrotation Xrotation
											JOINT LeftHandThumb2
											{
												OFFSET 5.551481 0.857113 2.302689
												CHANNELS 3 Zrotation Yrotation Xrotation
												JOINT LeftHandThumb3
												{
													OFFSET 3.625652 0.559721 1.503913
													CHANNELS 3 Zrotation Yrotation Xrotation
													JOINT LeftHandThumb4
													{
														OFFSET 2.195247 0.338921 0.910543
														CHANNELS 3 Zrotation Yrotation Xrotation
														End Site
														{
															OFFSET 0.000000 0.000000 0.000000
														}
													}
												}
											}
										}
									}
								}
							}
						}
					}
				}
			}
		}
	}
	JOINT RightUpLeg
	{
		OFFSET -8.786534 0.000035 -0.000020
		CHANNELS 3 Zrotation Yrotation Xrotation
		JOINT RightLeg
		{
			OFFSET -0.000066 -42.170407 -0.000063
			CHANNELS 3 Zrotation Yrotation Xrotation
			JOINT RightFoot
			{
				OFFSET 0.000035 -45.949168 0.000029
				CHANNELS 3 Zrotation Yrotation Xrotation
				JOINT RightForeFoot
				{
					OFFSET 0.000005 -4.685854 -0.000012
					CHANNELS 3 Zrotation Yrotation Xrotation
					JOINT RightToeBase
					{
						OFFSET -0.000065 -0.000017 18.351113
						CHANNELS 3 Zrotation Yrotation Xrotation
						JOINT RightToeBaseEnd
						{
							OFFSET 0.000039 0.000028 6.416943
							CHANNELS 3 Zrotation Yrotation Xrotation
							End Site
							{
								OFFSET 0.000000 0.000000 0.000000
							}
						}
					}
				}
			}
		}
	}
	JOINT LeftUpLeg
	{
		OFFSET 8.786549 -0.000053 -0.000049
		CHANNELS 3 Zrotation Yrotation Xrotation
		JOINT LeftLeg
		{
			OFFSET 0.000008 -42.170443 0.000003
			CHANNELS 3 Zrotation Yrotation Xrotation
			JOINT LeftFoot
			{
				OFFSET -0.000018 -45.949175 0.000015
				CHANNELS 3 Zrotation Yrotation Xrotation
				JOINT LeftForeFoot
				{
					OFFSET 0.000071 -4.685833 0.000035
					CHANNELS 3 Zrotation Yrotation Xrotation
					JOINT LeftToeBase
					{
						OFFSET 0.000032 -0.000048 18.351035
						CHANNELS 3 Zrotation Yrotation Xrotation
						JOINT LeftToeBaseEnd
						{
							OFFSET -0.000004 0.000017 7.522031
							CHANNELS 3 Zrotation Yrotation Xrotation
							End Site
							{
								OFFSET 0.000000 0.000000 0.000000
							}
						}
					}
				}
			}
		}
	}
}
MOTION
Frames: 4
Frame Time: 0.066667
0.392823 -0.436618 3.993860 -7.193123 17.475817 1.525094 9.291353 -1.290121 -0.348321 -0.077193 -0.203879 -2.935412 0.189074 -0.065675 -1.454473 2.154375 0.664161 8.076575 4.809322 1.282046 6.815918 -8.794049 6.314625 0.080425 -5.544981 1.374621 1.873265 0.000021 -0.000387 -0.001658 4.157908 -13.275038 -0.979229 61.308704 22.208679 -7.133309 -179.999878 70.364990 155.263748 -14.641546 -5.074319 0.000219 20.156914 -7.346159 -0.005513 14.200203 -0.001126 0.001644 11.446472 -0.002628 0.001103 -0.001433 0.000602 0.000476 -0.531807 -2.153142 -7.967983 21.731752 -6.775878 -1.903545 33.040367 0.846801 -2.823111 7.492892 0.046603 -0.673889 0.001546 0.004220 -0.000388 -1.621280 -4.013926 -4.736644 15.756549 -4.067061 -3.421472 34.371937 2.237710 -7.247885 22.703875 0.987121 -4.951588 0.000592 -0.002494 0.000594 0.298307 7.418231 -1.129496 15.706726 -9.412296 1.427202 7.783658 -0.020370 0.700471 8.722462 -0.062048 0.784817 0.001567 0.000792 0.000554 13.990894 -5.968218 52.320312 1.112065 7.061778 1.743990 -8.477396 5.018470 -3.080407 -0.001053 -0.000017 -0.000457 -8.793626 8.238609 -1.273248 -63.891449 -12.596917 -1.010582 179.998657 -61.203709 162.784607 12.655299 20.847506 0.122847 -26.551311 3.884082 0.000125 -55.800541 0.003211 -0.000178 -27.717226 0.001751 -0.000569 0.001383 0.001367 -0.001571 -0.492815 2.061272 -10.863957 -21.834171 3.708491 -1.912386 -62.149220 -2.761796 -4.574592 -16.212381 -0.203155 -1.442606 -0.000019 0.000239 0.001129 0.001270 2.378455 -4.447131 -7.603749 4.878987 -1.679801 -48.413284 -4.354152 -9.630658 -31.416178 -1.879783 -6.691418 -0.000562 -0.002580 -0.002038 -0.715100 -7.209268 -4.570872 -26.698456 15.541869 2.458678 -48.848343 1.737097 3.891933 -23.386702 0.441179 2.053738 -0.001463 -0.001409 -0.000880 -15.310660 9.187997 53.374756 -3.989527 6.719306 0.641064 0.000000 0.000000 0.000000 0.000179 0.000921 -0.001120 5.096362 -2.839772 1.462539 0.000266 -0.000868 4.175820 0.000000 0.000000 -0.000000 -0.000000 -0.000000 0.000000 0.000000 0.000000 0.000000 0.000000 0.000000 0.000000 14.469408 -7.034454 0.795705 -0.001773 0.001816 2.115716 -0.000000 -0.000000 -0.000000 -0.000000 0.000000 -0.000000 -0.000000 0.000000 0.000000 0.000000 -0.000000 -0.000000 
0.424598 -0.425760 4.009905 -7.175450 17.608261 1.529929 9.255282 -1.282617 -0.282133 -0.082669 -0.201042 -2.929899 0.175474 -0.027761 -1.430558 2.118209 0.666843 8.143900 4.786769 1.280566 6.936466 -8.750290 6.243711 0.075104 -5.522571 1.367830 1.851850 -0.000079 -0.000287 -0.001656 4.143366 -13.309075 -0.979967 61.783600 22.134947 -6.918183 179.999969 71.233101 155.563980 -15.946213 -4.805899 -0.000630 20.614662 -7.303356 -0.005815 15.814517 -0.000934 0.001725 12.042341 -0.002908 0.000827 -0.000976 0.000843 0.000322 -0.537824 -2.142858 -7.924454 21.728954 -6.704090 -1.903575 34.363350 0.924491 -2.922174 7.742956 0.049264 -0.695971 0.001470 0.003970 -0.000422 -1.614299 -3.933284 -4.629792 15.728202 -4.098878 -3.414180 34.890564 2.306893 -7.345092 23.182459 1.036588 -5.051172 0.000749 -0.002501 0.000609 0.430093 7.449800 -1.243623 16.700186 -9.973770 1.520828 9.813435 -0.079363 0.881831 9.236418 -0.070419 0.830929 0.001618 0.000837 0.000342 14.199228 -6.612482 52.653324 0.408556 7.884830 1.622672 -9.436739 5.598323 -3.392243 -0.000890 -0.000083 -0.000523 -8.732132 8.304140 -1.274743 -64.143242 -12.779449 -1.278323 179.999176 -61.194927 162.566574 13.227273 20.873526 0.128954 -26.474722 3.888322 0.000420 -55.624825 0.003052 0.000396 -27.617781 0.001547 -0.000860 0.001664 0.001589 -0.001823 -0.506175 2.057755 -10.894616 -21.733696 3.698219 -1.904416 -61.882206 -2.740135 -4.562433 -16.123352 -0.200977 -1.434852 0.000135 -0.000023 0.001212 -0.014970 2.332099 -4.489942 -7.555470 5.035022 -1.668580 -48.094387 -4.306440 -9.582214 -31.286623 -1.865450 -6.666317 -0.000106 -0.002712 -0.001969 -0.707529 -7.197925 -4.561933 -26.724394 15.465533 2.459781 -48.668388 1.725000 3.881675 -23.195587 0.435697 2.037986 -0.001483 -0.001414 -0.001314 -15.293673 9.279454 53.377964 -4.022869 6.697643 0.657834 0.000000 0.000000 0.000000 0.000174 0.000715 -0.001428 5.069706 -2.870036 1.487602 0.000407 -0.000879 4.192238 0.000000 0.000000 -0.000000 -0.000000 -0.000000 0.000000 0.000000 0.000000 0.000000 0.000000 0.000000 0.000000 14.420503 -7.102538 0.738961 -0.001774 0.001963 2.111487 -0.000000 -0.000000 -0.000000 -0.000000 0.000000 -0.000000 -0.000000 0.000000 0.000000 0.000000 -0.000000 0.000000 
0.406590 -0.414635 3.993908 -7.160008 17.714296 1.497166 9.227877 -1.275928 -0.144646 -0.091060 -0.198380 -2.916784 0.161066 0.006160 -1.408614 2.079283 0.669403 8.211754 4.747927 1.277892 6.990609 -8.697777 6.179655 0.058572 -5.503220 1.361841 1.834204 -0.000152 -0.000140 -0.001548 4.164097 -13.342195 -0.986372 62.181343 21.772476 -6.911259 179.999496 72.156395 155.511765 -17.424572 -4.623211 -0.001701 21.848711 -7.166959 -0.005982 18.645031 -0.000759 0.001779 13.253187 -0.003177 0.000692 -0.000346 0.000981 0.000251 -0.576619 -2.125002 -7.820551 22.579664 -6.533287 -1.975070 36.636238 1.057019 -3.088837 8.522988 0.061267 -0.765311 0.001388 0.003686 -0.000401 -1.638598 -3.894466 -4.478114 16.173044 -3.808203 -3.511374 36.037407 2.468327 -7.557524 24.199211 1.139427 -5.260695 0.000939 -0.002401 0.000555 0.593223 7.524577 -1.428349 18.628077 -10.774285 1.700364 13.458288 -0.192912 1.204522 10.573822 -0.097375 0.950048 0.001716 0.000920 0.000183 14.299982 -7.386075 53.340870 0.098876 8.303786 1.577277 -9.617817 5.713590 -3.439428 -0.000787 -0.000145 -0.000753 -8.678402 8.366690 -1.276699 -64.287338 -12.832649 -1.490066 179.999542 -61.338772 162.359604 13.722365 20.915113 0.132966 -26.282021 3.914455 0.000652 -55.429184 0.002636 0.000917 -27.509893 0.001127 -0.001220 0.001707 0.001773 -0.001800 -0.514053 2.060910 -10.907779 -21.508615 3.701991 -1.886386 -61.644146 -2.720681 -4.551661 -16.027809 -0.198540 -1.426728 0.000410 -0.000225 0.001231 -0.027964 2.299069 -4.534488 -7.370843 5.225689 -1.627056 -47.798603 -4.260255 -9.536840 -31.166328 -1.852124 -6.643274 0.000368 -0.002810 -0.001772 -0.705956 -7.187628 -4.528397 -26.730801 15.361617 2.458886 -48.480431 1.713331 3.871242 -23.028400 0.430731 2.024253 -0.001420 -0.001362 -0.001702 -15.298484 9.381294 53.392170 -4.109624 6.678815 0.692166 0.000000 0.000000 0.000000 0.000285 0.000567 -0.001658 5.062071 -2.917770 1.501885 0.000378 -0.000626 4.233942 0.000000 0.000000 -0.000000 -0.000000 -0.000000 0.000000 0.000000 -0.000000 0.000000 0.000000 0.000000 0.000000 14.433398 -7.113575 0.669605 -0.001756 0.001947 2.160483 -0.000000 -0.000000 -0.000000 -0.000000 0.000000 -0.000000 -0.000000 0.000000 0.000000 0.000000 -0.000000 0.000000 
0.376029 -0.402529 3.956254 -7.156283 17.775478 1.433374 9.222484 -1.271599 0.064326 -0.101645 -0.196168 -2.897111 0.146260 0.028394 -1.385777 2.038462 0.670693 8.284468 4.685009 1.269413 6.944923 -8.635821 6.121659 0.013236 -5.482881 1.355738 1.810605 -0.000046 0.000089 -0.001353 4.225177 -13.363571 -0.999572 62.395279 21.132700 -7.131643 179.999374 72.993744 154.885941 -18.848467 -4.566946 -0.002747 23.769691 -6.895849 -0.006068 22.388832 -0.000683 0.001831 15.037353 -0.003414 0.000654 0.000329 0.001067 0.000259 -0.625016 -2.089127 -7.740507 24.180948 -6.268468 -2.107898 39.559536 1.222750 -3.296217 9.811585 0.082116 -0.879800 0.001283 0.003383 -0.000300 -1.689071 -3.867511 -4.333719 17.048006 -3.288835 -3.702449 37.715710 2.706546 -7.862041 25.647142 1.283218 -5.555910 0.001025 -0.002154 0.000417 0.743277 7.623551 -1.712039 21.316278 -11.687136 1.944985 18.332340 -0.345755 1.627935 12.567127 -0.137860 1.126370 0.001814 0.001093 0.000189 14.228550 -8.238106 54.336967 0.220599 8.168424 1.591724 -8.969632 5.334573 -3.206005 -0.000781 -0.000240 -0.001040 -8.633024 8.420676 -1.279252 -64.245247 -12.772921 -1.596838 179.999619 -61.669373 162.179749 14.060381 20.960461 0.132865 -25.996975 3.985842 0.000942 -55.271172 0.002090 0.001290 -27.402643 0.000512 -0.001615 0.001449 0.001915 -0.001599 -0.506792 2.068289 -10.887142 -21.216011 3.745528 -1.862896 -61.529167 -2.712912 -4.546256 -15.939743 -0.196335 -1.419407 0.000772 -0.000343 0.001184 -0.033251 2.282665 -4.557184 -7.140604 5.410802 -1.575619 -47.576736 -4.223801 -9.502575 -31.104420 -1.845009 -6.632013 0.000746 -0.002991 -0.001521 -0.718396 -7.177326 -4.449903 -26.749468 15.246026 2.458155 -48.387535 1.708578 3.866750 -22.939152 0.427860 2.017015 -0.001368 -0.001329 -0.001972 -15.335247 9.529455 53.447464 -4.259986 6.612460 0.752655 0.000000 0.000000 0.000000 0.000442 0.000554 -0.001710 5.069968 -2.972028 1.477679 0.000215 -0.000078 4.294229 0.000000 0.000000 -0.000000 -0.000000 -0.000000 0.000000 0.000000 -0.000000 0.000000 0.000000 0.000000 0.000000 14.513482 -7.053891 0.590494 -0.001714 0.001770 2.266963 -0.000000 -0.000000 -0.000000 -0.000000 0.000000 -0.000000 -0.000000 0.000000 0.000000 0.000000 0.000000 0.000000 
